<svg width="56" height="23" viewBox="0 0 56 23" fill="none" xmlns="http://www.w3.org/2000/svg">
<path d="M4.00606 23C0.914096 23 -1.00876 19.6418 0.556396 16.9752L8.2014 3.9504C9.6378 1.50318 12.2631 0 15.1007 0H51.0201C53.2292 0 55.0201 1.79086 55.0201 4V19C55.0201 21.2091 53.2292 23 51.0201 23H4.00606Z" fill="#0063B0"/>
<path d="M23.6309 8.62598C22.8333 8.62598 22.2158 8.92676 21.7783 9.52832C21.3408 10.1253 21.1221 10.9593 21.1221 12.0303C21.1221 14.2588 21.9583 15.373 23.6309 15.373C24.3327 15.373 25.1826 15.1976 26.1807 14.8467V16.624C25.3604 16.9658 24.4443 17.1367 23.4326 17.1367C21.9788 17.1367 20.8669 16.6969 20.0967 15.8174C19.3265 14.9333 18.9414 13.6663 18.9414 12.0166C18.9414 10.9775 19.1305 10.0684 19.5088 9.28906C19.887 8.50521 20.4294 7.90592 21.1357 7.49121C21.8467 7.07194 22.6784 6.8623 23.6309 6.8623C24.6016 6.8623 25.5768 7.09701 26.5566 7.56641L25.873 9.28906C25.4993 9.11133 25.1234 8.95638 24.7451 8.82422C24.3669 8.69206 23.9954 8.62598 23.6309 8.62598ZM34.2129 14.2246C34.2129 15.127 33.887 15.8379 33.2354 16.3574C32.5882 16.877 31.6859 17.1367 30.5283 17.1367C29.4619 17.1367 28.5186 16.9362 27.6982 16.5352V14.5664C28.3727 14.8672 28.9424 15.0791 29.4072 15.2021C29.8766 15.3252 30.305 15.3867 30.6924 15.3867C31.1572 15.3867 31.5127 15.2979 31.7588 15.1201C32.0094 14.9424 32.1348 14.6781 32.1348 14.3271C32.1348 14.1312 32.0801 13.958 31.9707 13.8076C31.8613 13.6527 31.6995 13.5046 31.4854 13.3633C31.2757 13.222 30.8451 12.9964 30.1934 12.6865C29.5827 12.3994 29.1247 12.1237 28.8193 11.8594C28.514 11.5951 28.2702 11.2874 28.0879 10.9365C27.9056 10.5856 27.8145 10.1755 27.8145 9.70605C27.8145 8.82194 28.113 8.12695 28.71 7.62109C29.3115 7.11523 30.141 6.8623 31.1982 6.8623C31.7178 6.8623 32.2122 6.92383 32.6816 7.04688C33.1556 7.16992 33.6501 7.3431 34.165 7.56641L33.4814 9.21387C32.9482 8.99512 32.5062 8.84245 32.1553 8.75586C31.8089 8.66927 31.4671 8.62598 31.1299 8.62598C30.7288 8.62598 30.4212 8.7194 30.207 8.90625C29.9928 9.0931 29.8857 9.33691 29.8857 9.6377C29.8857 9.82454 29.929 9.98861 30.0156 10.1299C30.1022 10.2666 30.2389 10.401 30.4258 10.5332C30.6172 10.6608 31.0661 10.8932 31.7725 11.2305C32.7067 11.6771 33.347 12.126 33.6934 12.5771C34.0397 13.0238 34.2129 13.5729 34.2129 14.2246ZM41.7256 7.00586H43.8652L40.4678 17H38.1572L34.7666 7.00586H36.9062L38.7861 12.9531C38.891 13.304 38.998 13.7142 39.1074 14.1836C39.2214 14.6484 39.292 14.972 39.3193 15.1543C39.3695 14.735 39.5404 14.0013 39.832 12.9531L41.7256 7.00586Z" fill="white"/>
</svg>
