<svg width="56" height="23" viewBox="0 0 56 23" fill="none" xmlns="http://www.w3.org/2000/svg">
<path d="M4.00606 23C0.914096 23 -1.00876 19.6418 0.556396 16.9752L8.2014 3.9504C9.6378 1.50318 12.2631 0 15.1007 0H51.0201C53.2292 0 55.0201 1.79086 55.0201 4V19C55.0201 21.2091 53.2292 23 51.0201 23H4.00606Z" fill="#0063B0"/>
<path d="M20.6641 11.9072C20.6641 13.5524 20.1947 14.8125 19.2559 15.6875C18.3216 16.5625 16.9704 17 15.2021 17H12.3721V7.00586H15.5098C17.1413 7.00586 18.4082 7.43652 19.3105 8.29785C20.2129 9.15918 20.6641 10.3623 20.6641 11.9072ZM18.4629 11.9619C18.4629 9.81543 17.515 8.74219 15.6191 8.74219H14.4912V15.25H15.4004C17.4421 15.25 18.4629 14.154 18.4629 11.9619ZM31.8066 11.9893C31.8066 13.6436 31.3965 14.915 30.5762 15.8037C29.7559 16.6924 28.5801 17.1367 27.0488 17.1367C25.5176 17.1367 24.3418 16.6924 23.5215 15.8037C22.7012 14.915 22.291 13.639 22.291 11.9756C22.291 10.3122 22.7012 9.04297 23.5215 8.16797C24.3464 7.28841 25.5267 6.84863 27.0625 6.84863C28.5983 6.84863 29.7718 7.29069 30.583 8.1748C31.3988 9.05892 31.8066 10.3304 31.8066 11.9893ZM24.5127 11.9893C24.5127 13.1058 24.7246 13.9466 25.1484 14.5117C25.5723 15.0768 26.2057 15.3594 27.0488 15.3594C28.7396 15.3594 29.585 14.236 29.585 11.9893C29.585 9.73796 28.7441 8.6123 27.0625 8.6123C26.2194 8.6123 25.5837 8.89714 25.1553 9.4668C24.7269 10.0319 24.5127 10.8727 24.5127 11.9893ZM38.123 8.62598C37.3255 8.62598 36.708 8.92676 36.2705 9.52832C35.833 10.1253 35.6143 10.9593 35.6143 12.0303C35.6143 14.2588 36.4505 15.373 38.123 15.373C38.8249 15.373 39.6748 15.1976 40.6729 14.8467V16.624C39.8525 16.9658 38.9365 17.1367 37.9248 17.1367C36.471 17.1367 35.359 16.6969 34.5889 15.8174C33.8187 14.9333 33.4336 13.6663 33.4336 12.0166C33.4336 10.9775 33.6227 10.0684 34.001 9.28906C34.3792 8.50521 34.9215 7.90592 35.6279 7.49121C36.3389 7.07194 37.1706 6.8623 38.123 6.8623C39.0938 6.8623 40.069 7.09701 41.0488 7.56641L40.3652 9.28906C39.9915 9.11133 39.6156 8.95638 39.2373 8.82422C38.859 8.69206 38.4876 8.62598 38.123 8.62598ZM50.8857 17H48.4658L46.1416 13.2197L43.8174 17H41.5479L44.8633 11.8457L41.7598 7.00586H44.0977L46.251 10.6016L48.3633 7.00586H50.6465L47.5088 11.9619L50.8857 17Z" fill="white"/>
</svg>
