<svg width="56" height="23" viewBox="0 0 56 23" fill="none" xmlns="http://www.w3.org/2000/svg">
<path d="M4.00606 23C0.914096 23 -1.00876 19.6418 0.556396 16.9752L8.2014 3.9504C9.6378 1.50318 12.2631 0 15.1007 0H51.0201C53.2292 0 55.0201 1.79086 55.0201 4V19C55.0201 21.2091 53.2292 23 51.0201 23H4.00606Z" fill="#0063B0"/>
<path d="M20.8018 17H18.7168V7.00586H24.4453V8.74219H20.8018V11.3193H24.1924V13.0488H20.8018V17ZM26.4004 17V7.00586H28.5195V17H26.4004ZM31.0352 17V7.00586H33.1543V15.25H37.208V17H31.0352ZM44.707 17H38.9512V7.00586H44.707V8.74219H41.0703V10.9365H44.4541V12.6729H41.0703V15.25H44.707V17Z" fill="white"/>
</svg>
