<svg width="56" height="23" viewBox="0 0 56 23" fill="none" xmlns="http://www.w3.org/2000/svg">
<path d="M4.00606 23C0.914096 23 -1.00876 19.6418 0.556396 16.9752L8.2014 3.9504C9.6378 1.50318 12.2631 0 15.1007 0H51.0201C53.2292 0 55.0201 1.79086 55.0201 4V19C55.0201 21.2091 53.2292 23 51.0201 23H4.00606Z" fill="#0063B0"/>
<path d="M20.4727 17H18.3604V12.6865H14.4023V17H12.2832V7.00586H14.4023V10.9229H18.3604V7.00586H20.4727V17ZM26.8574 17H24.7383V8.76953H22.0244V7.00586H29.5713V8.76953H26.8574V17ZM35.3408 17L32.9346 9.15918H32.873C32.9596 10.7542 33.0029 11.8184 33.0029 12.3516V17H31.1094V7.00586H33.9941L36.3594 14.6484H36.4004L38.9092 7.00586H41.7939V17H39.8184V12.2695C39.8184 12.0462 39.8206 11.7887 39.8252 11.4971C39.8343 11.2054 39.8662 10.4307 39.9209 9.17285H39.8594L37.2822 17H35.3408ZM44.3164 17V7.00586H46.4355V15.25H50.4893V17H44.3164Z" fill="white"/>
</svg>
