<svg width="56" height="23" viewBox="0 0 56 23" fill="none" xmlns="http://www.w3.org/2000/svg">
<path d="M4.00606 23C0.914096 23 -1.00876 19.6418 0.556396 16.9752L8.2014 3.9504C9.6378 1.50318 12.2631 0 15.1007 0H51.0201C53.2292 0 55.0201 1.79086 55.0201 4V19C55.0201 21.2091 53.2292 23 51.0201 23H4.00606Z" fill="#0063B0"/>
<path d="M19.4268 19.9395C18.9482 19.9395 18.5312 19.8893 18.1758 19.7891V18.0254C18.5404 18.1165 18.873 18.1621 19.1738 18.1621C19.6387 18.1621 19.9714 18.0163 20.1719 17.7246C20.3724 17.4375 20.4727 16.9863 20.4727 16.3711V7.00586H22.5918V16.3574C22.5918 17.5241 22.3252 18.4128 21.792 19.0234C21.2588 19.6341 20.4704 19.9395 19.4268 19.9395ZM27.2266 11.709H27.9238C28.5755 11.709 29.0632 11.5814 29.3867 11.3262C29.7103 11.0664 29.8721 10.6904 29.8721 10.1982C29.8721 9.7015 29.7354 9.33464 29.4619 9.09766C29.193 8.86068 28.7692 8.74219 28.1904 8.74219H27.2266V11.709ZM32.0117 10.123C32.0117 11.1986 31.6745 12.0212 31 12.5908C30.3301 13.1605 29.3753 13.4453 28.1357 13.4453H27.2266V17H25.1074V7.00586H28.2998C29.512 7.00586 30.4326 7.2679 31.0615 7.79199C31.695 8.31152 32.0117 9.08854 32.0117 10.123ZM37.6924 11.3877H41.6572V16.5693C41.0146 16.779 40.4085 16.9248 39.8389 17.0068C39.2738 17.0934 38.695 17.1367 38.1025 17.1367C36.5941 17.1367 35.4411 16.6947 34.6436 15.8105C33.8506 14.9219 33.4541 13.6481 33.4541 11.9893C33.4541 10.376 33.9144 9.11816 34.835 8.21582C35.7601 7.31348 37.0407 6.8623 38.6768 6.8623C39.7021 6.8623 40.6911 7.06738 41.6436 7.47754L40.9395 9.17285C40.2103 8.80827 39.4515 8.62598 38.6631 8.62598C37.7471 8.62598 37.0133 8.93359 36.4619 9.54883C35.9105 10.1641 35.6348 10.9912 35.6348 12.0303C35.6348 13.1149 35.8558 13.9443 36.2979 14.5186C36.7445 15.0882 37.3916 15.373 38.2393 15.373C38.6813 15.373 39.1302 15.3275 39.5859 15.2363V13.1514H37.6924V11.3877Z" fill="white"/>
</svg>
