<svg width="56" height="23" viewBox="0 0 56 23" fill="none" xmlns="http://www.w3.org/2000/svg">
<path d="M4.00606 23C0.914096 23 -1.00876 19.6418 0.556396 16.9752L8.2014 3.9504C9.6378 1.50318 12.2631 0 15.1007 0H51.0201C53.2292 0 55.0201 1.79086 55.0201 4V19C55.0201 21.2091 53.2292 23 51.0201 23H4.00606Z" fill="#0063B0"/>
<path d="M14.2734 19.9395C13.7949 19.9395 13.3779 19.8893 13.0225 19.7891V18.0254C13.387 18.1165 13.7197 18.1621 14.0205 18.1621C14.4854 18.1621 14.818 18.0163 15.0186 17.7246C15.2191 17.4375 15.3193 16.9863 15.3193 16.3711V7.00586H17.4385V16.3574C17.4385 17.5241 17.1719 18.4128 16.6387 19.0234C16.1055 19.6341 15.3171 19.9395 14.2734 19.9395ZM25.8535 14.2246C25.8535 15.127 25.5277 15.8379 24.876 16.3574C24.2288 16.877 23.3265 17.1367 22.1689 17.1367C21.1025 17.1367 20.1592 16.9362 19.3389 16.5352V14.5664C20.0133 14.8672 20.583 15.0791 21.0479 15.2021C21.5173 15.3252 21.9456 15.3867 22.333 15.3867C22.7979 15.3867 23.1533 15.2979 23.3994 15.1201C23.6501 14.9424 23.7754 14.6781 23.7754 14.3271C23.7754 14.1312 23.7207 13.958 23.6113 13.8076C23.502 13.6527 23.3402 13.5046 23.126 13.3633C22.9163 13.222 22.4857 12.9964 21.834 12.6865C21.2233 12.3994 20.7653 12.1237 20.46 11.8594C20.1546 11.5951 19.9108 11.2874 19.7285 10.9365C19.5462 10.5856 19.4551 10.1755 19.4551 9.70605C19.4551 8.82194 19.7536 8.12695 20.3506 7.62109C20.9521 7.11523 21.7816 6.8623 22.8389 6.8623C23.3584 6.8623 23.8529 6.92383 24.3223 7.04688C24.7962 7.16992 25.2907 7.3431 25.8057 7.56641L25.1221 9.21387C24.5889 8.99512 24.1468 8.84245 23.7959 8.75586C23.4495 8.66927 23.1077 8.62598 22.7705 8.62598C22.3695 8.62598 22.0618 8.7194 21.8477 8.90625C21.6335 9.0931 21.5264 9.33691 21.5264 9.6377C21.5264 9.82454 21.5697 9.98861 21.6562 10.1299C21.7428 10.2666 21.8796 10.401 22.0664 10.5332C22.2578 10.6608 22.7067 10.8932 23.4131 11.2305C24.3473 11.6771 24.9876 12.126 25.334 12.5771C25.6803 13.0238 25.8535 13.5729 25.8535 14.2246ZM36.7363 11.9893C36.7363 13.6436 36.3262 14.915 35.5059 15.8037C34.6855 16.6924 33.5098 17.1367 31.9785 17.1367C30.4473 17.1367 29.2715 16.6924 28.4512 15.8037C27.6309 14.915 27.2207 13.639 27.2207 11.9756C27.2207 10.3122 27.6309 9.04297 28.4512 8.16797C29.276 7.28841 30.4564 6.84863 31.9922 6.84863C33.528 6.84863 34.7015 7.29069 35.5127 8.1748C36.3285 9.05892 36.7363 10.3304 36.7363 11.9893ZM29.4424 11.9893C29.4424 13.1058 29.6543 13.9466 30.0781 14.5117C30.502 15.0768 31.1354 15.3594 31.9785 15.3594C33.6693 15.3594 34.5146 14.236 34.5146 11.9893C34.5146 9.73796 33.6738 8.6123 31.9922 8.6123C31.1491 8.6123 30.5133 8.89714 30.085 9.4668C29.6566 10.0319 29.4424 10.8727 29.4424 11.9893ZM47.6738 17H44.9805L40.6328 9.43945H40.5713C40.6579 10.7747 40.7012 11.7272 40.7012 12.2969V17H38.8076V7.00586H41.4805L45.8213 14.4912H45.8691C45.8008 13.1924 45.7666 12.2741 45.7666 11.7363V7.00586H47.6738V17Z" fill="white"/>
</svg>
