<svg width="56" height="23" viewBox="0 0 56 23" fill="none" xmlns="http://www.w3.org/2000/svg">
<path d="M4.00606 23C0.914096 23 -1.00876 19.6418 0.556396 16.9752L8.2014 3.9504C9.6378 1.50318 12.2631 0 15.1007 0H51.0201C53.2292 0 55.0201 1.79086 55.0201 4V19C55.0201 21.2091 53.2292 23 51.0201 23H4.00606Z" fill="#0063B0"/>
<path d="M21.458 11.709H22.1553C22.807 11.709 23.2946 11.5814 23.6182 11.3262C23.9417 11.0664 24.1035 10.6904 24.1035 10.1982C24.1035 9.7015 23.9668 9.33464 23.6934 9.09766C23.4245 8.86068 23.0007 8.74219 22.4219 8.74219H21.458V11.709ZM26.2432 10.123C26.2432 11.1986 25.9059 12.0212 25.2314 12.5908C24.5615 13.1605 23.6068 13.4453 22.3672 13.4453H21.458V17H19.3389V7.00586H22.5312C23.7435 7.00586 24.6641 7.2679 25.293 7.79199C25.9264 8.31152 26.2432 9.08854 26.2432 10.123ZM36.4219 11.9072C36.4219 13.5524 35.9525 14.8125 35.0137 15.6875C34.0794 16.5625 32.7282 17 30.96 17H28.1299V7.00586H31.2676C32.8991 7.00586 34.166 7.43652 35.0684 8.29785C35.9707 9.15918 36.4219 10.3623 36.4219 11.9072ZM34.2207 11.9619C34.2207 9.81543 33.2728 8.74219 31.377 8.74219H30.249V15.25H31.1582C33.1999 15.25 34.2207 14.154 34.2207 11.9619ZM40.5781 17H38.4932V7.00586H44.2217V8.74219H40.5781V11.3193H43.9688V13.0488H40.5781V17Z" fill="white"/>
</svg>
