<svg width="56" height="23" viewBox="0 0 56 23" fill="none" xmlns="http://www.w3.org/2000/svg">
<path d="M4.00606 23C0.914096 23 -1.00876 19.6418 0.556396 16.9752L8.2014 3.9504C9.6378 1.50318 12.2631 0 15.1007 0H51.0201C53.2292 0 55.0201 1.79086 55.0201 4V19C55.0201 21.2091 53.2292 23 51.0201 23H4.00606Z" fill="#0063B0"/>
<path d="M19.7148 11.709H20.4121C21.0638 11.709 21.5514 11.5814 21.875 11.3262C22.1986 11.0664 22.3604 10.6904 22.3604 10.1982C22.3604 9.7015 22.2236 9.33464 21.9502 9.09766C21.6813 8.86068 21.2575 8.74219 20.6787 8.74219H19.7148V11.709ZM24.5 10.123C24.5 11.1986 24.1628 12.0212 23.4883 12.5908C22.8184 13.1605 21.8636 13.4453 20.624 13.4453H19.7148V17H17.5957V7.00586H20.7881C22.0003 7.00586 22.9209 7.2679 23.5498 7.79199C24.1833 8.31152 24.5 9.08854 24.5 10.123ZM35.2529 17H32.5596L28.2119 9.43945H28.1504C28.237 10.7747 28.2803 11.7272 28.2803 12.2969V17H26.3867V7.00586H29.0596L33.4004 14.4912H33.4482C33.3799 13.1924 33.3457 12.2741 33.3457 11.7363V7.00586H35.2529V17ZM41.5693 11.3877H45.5342V16.5693C44.8916 16.779 44.2855 16.9248 43.7158 17.0068C43.1507 17.0934 42.5719 17.1367 41.9795 17.1367C40.471 17.1367 39.318 16.6947 38.5205 15.8105C37.7275 14.9219 37.3311 13.6481 37.3311 11.9893C37.3311 10.376 37.7913 9.11816 38.7119 8.21582C39.637 7.31348 40.9176 6.8623 42.5537 6.8623C43.5791 6.8623 44.568 7.06738 45.5205 7.47754L44.8164 9.17285C44.0872 8.80827 43.3285 8.62598 42.54 8.62598C41.624 8.62598 40.8903 8.93359 40.3389 9.54883C39.7874 10.1641 39.5117 10.9912 39.5117 12.0303C39.5117 13.1149 39.7327 13.9443 40.1748 14.5186C40.6214 15.0882 41.2686 15.373 42.1162 15.373C42.5583 15.373 43.0072 15.3275 43.4629 15.2363V13.1514H41.5693V11.3877Z" fill="white"/>
</svg>
