<svg width="56" height="23" viewBox="0 0 56 23" fill="none" xmlns="http://www.w3.org/2000/svg">
<path d="M4.00606 23C0.914096 23 -1.00876 19.6418 0.556396 16.9752L8.2014 3.9504C9.6378 1.50318 12.2631 0 15.1007 0H51.0201C53.2292 0 55.0201 1.79086 55.0201 4V19C55.0201 21.2091 53.2292 23 51.0201 23H4.00606Z" fill="#0063B0"/>
<path d="M21.5322 11.709H22.2295C22.8812 11.709 23.3688 11.5814 23.6924 11.3262C24.016 11.0664 24.1777 10.6904 24.1777 10.1982C24.1777 9.7015 24.041 9.33464 23.7676 9.09766C23.4987 8.86068 23.0749 8.74219 22.4961 8.74219H21.5322V11.709ZM26.3174 10.123C26.3174 11.1986 25.9801 12.0212 25.3057 12.5908C24.6357 13.1605 23.681 13.4453 22.4414 13.4453H21.5322V17H19.4131V7.00586H22.6055C23.8177 7.00586 24.7383 7.2679 25.3672 7.79199C26.0007 8.31152 26.3174 9.08854 26.3174 10.123ZM30.3232 11.709H31.0205C31.6722 11.709 32.1598 11.5814 32.4834 11.3262C32.807 11.0664 32.9688 10.6904 32.9688 10.1982C32.9688 9.7015 32.832 9.33464 32.5586 9.09766C32.2897 8.86068 31.8659 8.74219 31.2871 8.74219H30.3232V11.709ZM35.1084 10.123C35.1084 11.1986 34.7712 12.0212 34.0967 12.5908C33.4268 13.1605 32.472 13.4453 31.2324 13.4453H30.3232V17H28.2041V7.00586H31.3965C32.6087 7.00586 33.5293 7.2679 34.1582 7.79199C34.7917 8.31152 35.1084 9.08854 35.1084 10.123ZM40.8506 17H38.7314V8.76953H36.0176V7.00586H43.5645V8.76953H40.8506V17Z" fill="white"/>
</svg>
