<svg width="56" height="23" viewBox="0 0 56 23" fill="none" xmlns="http://www.w3.org/2000/svg">
<path d="M4.00606 23C0.914096 23 -1.00876 19.6418 0.556396 16.9752L8.2014 3.9504C9.6378 1.50318 12.2631 0 15.1007 0H51.0201C53.2292 0 55.0201 1.79086 55.0201 4V19C55.0201 21.2091 53.2292 23 51.0201 23H4.00606Z" fill="#0063B0"/>
<path d="M23.3369 17H21.2178V8.76953H18.5039V7.00586H26.0508V8.76953H23.3369V17ZM35.6689 17H33.249L30.9248 13.2197L28.6006 17H26.3311L29.6465 11.8457L26.543 7.00586H28.8809L31.0342 10.6016L33.1465 7.00586H35.4297L32.292 11.9619L35.6689 17ZM40.7822 17H38.6631V8.76953H35.9492V7.00586H43.4961V8.76953H40.7822V17Z" fill="white"/>
</svg>
