<svg width="56" height="23" viewBox="0 0 56 23" fill="none" xmlns="http://www.w3.org/2000/svg">
<path d="M4.00606 23C0.914096 23 -1.00876 19.6418 0.556396 16.9752L8.2014 3.9504C9.6378 1.50318 12.2631 0 15.1007 0H51.0201C53.2292 0 55.0201 1.79086 55.0201 4V19C55.0201 21.2091 53.2292 23 51.0201 23H4.00606Z" fill="#0063B0"/>
<path d="M28.3555 17H25.9355L23.6113 13.2197L21.2871 17H19.0176L22.333 11.8457L19.2295 7.00586H21.5674L23.7207 10.6016L25.833 7.00586H28.1162L24.9785 11.9619L28.3555 17ZM29.6133 17V7.00586H31.7324V15.25H35.7861V17H29.6133ZM43.4287 14.2246C43.4287 15.127 43.1029 15.8379 42.4512 16.3574C41.804 16.877 40.9017 17.1367 39.7441 17.1367C38.6777 17.1367 37.7344 16.9362 36.9141 16.5352V14.5664C37.5885 14.8672 38.1582 15.0791 38.623 15.2021C39.0924 15.3252 39.5208 15.3867 39.9082 15.3867C40.373 15.3867 40.7285 15.2979 40.9746 15.1201C41.2253 14.9424 41.3506 14.6781 41.3506 14.3271C41.3506 14.1312 41.2959 13.958 41.1865 13.8076C41.0771 13.6527 40.9154 13.5046 40.7012 13.3633C40.4915 13.222 40.0609 12.9964 39.4092 12.6865C38.7985 12.3994 38.3405 12.1237 38.0352 11.8594C37.7298 11.5951 37.486 11.2874 37.3037 10.9365C37.1214 10.5856 37.0303 10.1755 37.0303 9.70605C37.0303 8.82194 37.3288 8.12695 37.9258 7.62109C38.5273 7.11523 39.3568 6.8623 40.4141 6.8623C40.9336 6.8623 41.4281 6.92383 41.8975 7.04688C42.3714 7.16992 42.8659 7.3431 43.3809 7.56641L42.6973 9.21387C42.1641 8.99512 41.722 8.84245 41.3711 8.75586C41.0247 8.66927 40.6829 8.62598 40.3457 8.62598C39.9447 8.62598 39.637 8.7194 39.4229 8.90625C39.2087 9.0931 39.1016 9.33691 39.1016 9.6377C39.1016 9.82454 39.1449 9.98861 39.2314 10.1299C39.318 10.2666 39.4548 10.401 39.6416 10.5332C39.833 10.6608 40.2819 10.8932 40.9883 11.2305C41.9225 11.6771 42.5628 12.126 42.9092 12.5771C43.2555 13.0238 43.4287 13.5729 43.4287 14.2246Z" fill="white"/>
</svg>
