<svg width="56" height="23" viewBox="0 0 56 23" fill="none" xmlns="http://www.w3.org/2000/svg">
<path d="M4.00606 23C0.914096 23 -1.00876 19.6418 0.556396 16.9752L8.2014 3.9504C9.6378 1.50318 12.2631 0 15.1007 0H51.0201C53.2292 0 55.0201 1.79086 55.0201 4V19C55.0201 21.2091 53.2292 23 51.0201 23H4.00606Z" fill="#0063B0"/>
<path d="M28.0059 17H20.5684V15.626L25.3604 8.75586H20.6982V7.00586H27.876V8.37305L23.0908 15.25H28.0059V17ZM29.5986 17V7.00586H31.7178V17H29.5986ZM36.3525 11.709H37.0498C37.7015 11.709 38.1891 11.5814 38.5127 11.3262C38.8363 11.0664 38.998 10.6904 38.998 10.1982C38.998 9.7015 38.8613 9.33464 38.5879 9.09766C38.319 8.86068 37.8952 8.74219 37.3164 8.74219H36.3525V11.709ZM41.1377 10.123C41.1377 11.1986 40.8005 12.0212 40.126 12.5908C39.4561 13.1605 38.5013 13.4453 37.2617 13.4453H36.3525V17H34.2334V7.00586H37.4258C38.638 7.00586 39.5586 7.2679 40.1875 7.79199C40.821 8.31152 41.1377 9.08854 41.1377 10.123Z" fill="white"/>
</svg>
