<svg width="208" height="209" viewBox="0 0 208 209" fill="none" xmlns="http://www.w3.org/2000/svg">
<rect width="208" height="209" fill="white"/>
<circle cx="104" cy="104" r="100" fill="#112089"/>
<circle cx="104" cy="104" r="90" fill="#E7B954"/>
<path fill-rule="evenodd" clip-rule="evenodd" d="M143.915 98.218L124.896 109.649L108.855 106.632C108.812 106.624 108.768 106.618 108.725 106.615C106.266 106.438 103.976 106.727 101.862 107.491C99.5907 106.243 97.5871 106.466 95.3403 107.209C92.3782 108.187 88.9177 110.204 83.2537 109.739L64.0847 98.218C63.5092 97.8721 62.7723 98.0774 62.4399 98.677L45.1614 129.829C44.829 130.429 45.0265 131.195 45.6021 131.542L60.5664 140.534C61.1419 140.881 61.8788 140.675 62.2111 140.076L64.4676 136.004L67.8631 138.045C68.4411 138.391 69.1756 138.186 69.5079 137.586L71.6247 133.773L75.1382 136.577L73.6596 142.321C73.0045 144.869 74.4591 147.493 76.9082 148.176C77.8931 148.45 78.8901 148.369 79.7715 148.008C80.0894 149.756 81.3368 151.25 83.0971 151.741C84.0195 151.998 84.9514 151.943 85.7919 151.639C85.4668 154 86.8828 156.297 89.1489 156.93C90.129 157.203 91.1212 157.124 92.0001 156.768C92.2915 158.553 93.551 160.087 95.3378 160.586C97.7869 161.269 100.308 159.754 100.963 157.206L101.016 157.003L103.759 159.169C106.131 161.041 109.517 160.556 111.316 158.087C111.388 157.988 111.456 157.887 111.521 157.785C113.707 158.665 116.277 157.979 117.763 155.939C117.963 155.667 118.131 155.381 118.276 155.087C120.255 155.522 122.391 154.775 123.694 152.986C124.412 152.001 124.768 150.847 124.787 149.698C127.005 150.666 129.654 149.996 131.174 147.911C132.52 146.061 132.597 143.62 131.552 141.723C132.809 141.224 133.953 140.516 135.087 139.836C136.469 139.007 137.832 138.21 139.511 138.213C139.648 138.216 139.788 138.194 139.925 138.145C139.997 138.119 140.067 138.087 140.132 138.047L140.137 138.045L143.532 136.004L145.789 140.076C146.121 140.675 146.858 140.881 147.434 140.534L162.398 131.542C162.973 131.195 163.171 130.429 162.839 129.829L145.56 98.677C145.228 98.0774 144.491 97.8721 143.915 98.218ZM99.1572 154.533L100.405 149.693C100.715 148.481 100.024 147.233 98.8586 146.908C97.6954 146.583 96.4962 147.304 96.1855 148.516L94.4179 155.38C94.1049 156.592 94.7984 157.84 95.9616 158.165C97.1271 158.49 98.3264 157.769 98.637 156.557L99.1475 154.574C99.1524 154.56 99.1548 154.546 99.1572 154.533ZM98.6322 109.119C97.3077 109.075 96.0049 109.593 94.507 110.167C91.728 111.231 88.3927 112.569 83.5475 112.273L72.8384 131.584L76.0003 134.107C77.0527 132.406 79.0755 131.525 81.0526 132.076C82.813 132.567 84.058 134.061 84.3759 135.808C85.2597 135.447 86.2567 135.366 87.2416 135.641C89.5077 136.274 90.9237 138.571 90.5986 140.932C91.439 140.627 92.371 140.573 93.2933 140.83C95.0826 141.329 96.3396 142.863 96.6334 144.648C97.5124 144.292 98.5022 144.213 99.4823 144.486C101.931 145.169 103.386 147.793 102.731 150.342L101.688 154.389L105.214 157.171C106.529 158.207 108.402 157.939 109.397 156.572C109.426 156.532 109.454 156.491 109.481 156.449L104.93 152.856C104.4 152.438 104.294 151.651 104.696 151.1C105.098 150.549 105.854 150.44 106.384 150.858L111.644 155.009C111.687 155.038 111.728 155.069 111.766 155.102C113.072 156.045 114.875 155.756 115.843 154.425C115.937 154.298 116.019 154.166 116.089 154.03L109.479 148.814C108.949 148.396 108.845 147.609 109.247 147.058C109.65 146.506 110.406 146.398 110.933 146.816L117.592 152.071C117.734 152.181 117.881 152.277 118.03 152.358C118.066 152.374 118.1 152.392 118.133 152.411C119.381 153.018 120.91 152.659 121.775 151.472C122.772 150.105 122.514 148.154 121.199 147.118L114.615 141.89L114.606 141.883L114.598 141.876L114.589 141.868L114.581 141.863L114.577 141.858L114.569 141.852L114.565 141.847L114.555 141.84L114.548 141.831L114.536 141.821L114.524 141.81L114.514 141.799L114.502 141.788L114.492 141.777L114.48 141.766L114.471 141.755L114.461 141.743L114.449 141.731L114.447 141.729L114.439 141.72L114.437 141.717L114.43 141.708L114.427 141.705L114.42 141.696L114.418 141.693L114.41 141.684L114.408 141.681L114.401 141.672L114.398 141.669L114.391 141.66V141.657L114.384 141.647L114.382 141.644L114.374 141.635L114.372 141.632L114.367 141.623L114.365 141.62L114.358 141.61L114.355 141.607L114.35 141.597L114.348 141.594L114.341 141.585L114.338 141.582L114.333 141.572L114.331 141.569L114.326 141.559L114.324 141.556L114.317 141.546V141.543L114.309 141.533L114.307 141.529L114.302 141.519L114.3 141.516L114.295 141.506L114.292 141.503L114.288 141.493L114.285 141.49L114.28 141.48V141.476L114.273 141.466V141.463L114.268 141.452L114.266 141.449L114.261 141.439L114.259 141.435L114.256 141.425L114.254 141.422L114.249 141.411L114.247 141.408L114.244 141.397L114.242 141.394L114.237 141.384V141.38L114.232 141.369L114.23 141.366L114.227 141.355L114.225 141.352L114.22 141.341V141.338L114.215 141.327V141.324L114.211 141.313V141.31L114.206 141.299V141.295L114.201 141.285V141.281L114.199 141.27L114.196 141.266L114.194 141.256L114.191 141.252L114.189 141.241V141.238L114.184 141.227V141.223L114.182 141.212V141.209L114.177 141.198V141.194L114.174 141.183V141.179L114.172 141.168L114.17 141.165L114.167 141.154V141.15L114.165 141.139V141.135L114.162 141.124V141.12L114.16 141.109V141.106L114.158 141.094V141.091L114.155 141.079V141.076L114.153 141.065V141.061L114.15 141.05V141.046V141.035L114.148 141.031V141.02V141.016L114.146 141.005V141.001V140.99V140.986L114.143 140.975V140.971V140.96V140.945V140.93V140.915V140.9V140.885V140.87V140.854V140.839V140.824L114.146 140.809V140.794V140.779L114.148 140.764L114.15 140.749V140.734L114.153 140.719L114.155 140.704L114.158 140.689L114.16 140.674L114.162 140.659L114.165 140.644L114.17 140.629L114.172 140.614L114.174 140.6L114.179 140.585L114.182 140.57L114.187 140.555V140.552L114.191 140.54V140.537L114.194 140.526L114.196 140.522L114.199 140.511L114.201 140.508L114.203 140.497L114.206 140.493L114.208 140.482V140.479L114.213 140.468L114.215 140.464L114.218 140.453L114.22 140.45L114.223 140.439L114.225 140.435L114.23 140.424V140.421L114.235 140.41L114.237 140.407L114.242 140.396V140.392L114.247 140.382L114.249 140.378L114.254 140.367V140.364L114.259 140.353L114.261 140.35L114.266 140.339L114.268 140.336L114.273 140.325V140.322L114.28 140.311V140.308L114.288 140.297V140.294L114.295 140.284V140.28L114.302 140.27V140.267L114.309 140.256L114.312 140.253L114.317 140.243L114.319 140.239L114.326 140.229V140.226L114.333 140.216L114.336 140.213L114.341 140.202L114.348 140.193L114.353 140.186L114.358 140.179L114.36 140.173L114.365 140.166L114.37 140.16L114.374 140.153L114.382 140.143L114.389 140.134L114.396 140.124L114.403 140.115L114.41 140.105L114.415 140.099L114.42 140.093L114.425 140.086L114.43 140.08L114.437 140.071L114.444 140.062L114.456 140.05L114.466 140.038L114.476 140.027L114.488 140.016L114.497 140.004L114.507 139.993L114.519 139.982L114.531 139.972L114.541 139.961L114.543 139.959L114.553 139.951L114.555 139.948L114.565 139.941L114.567 139.938L114.574 139.931L114.577 139.928L114.586 139.921L114.589 139.918L114.598 139.911L114.601 139.909L114.61 139.902L114.613 139.899L114.622 139.892L114.625 139.89L114.634 139.883L114.637 139.881L114.646 139.874L114.649 139.872L114.659 139.865L114.661 139.863L114.671 139.856L114.673 139.854L114.683 139.848L114.685 139.846L114.695 139.839L114.697 139.837L114.707 139.831L114.709 139.829L114.719 139.823L114.724 139.821L114.733 139.815L114.736 139.813L114.745 139.808L114.748 139.806L114.757 139.8L114.76 139.798L114.769 139.793L114.774 139.791L114.784 139.785L114.786 139.784L114.796 139.778L114.801 139.777L114.81 139.772L114.813 139.77L114.822 139.765L114.825 139.763L114.837 139.758L114.839 139.757L114.849 139.752L114.851 139.751L114.863 139.746L114.866 139.745L114.875 139.74L114.878 139.739L114.89 139.734L114.892 139.733L114.902 139.729L114.907 139.727L114.916 139.723L114.919 139.722L114.928 139.718L114.933 139.717L114.943 139.713L114.947 139.711L114.957 139.708L114.96 139.706L114.972 139.703L114.974 139.702L114.984 139.698L114.988 139.697L114.998 139.694L115 139.693L115.013 139.69L115.015 139.689L115.027 139.686L115.029 139.685L115.039 139.682L115.044 139.681L115.053 139.678L115.058 139.677L115.068 139.674L115.073 139.674L115.082 139.671L115.085 139.67L115.097 139.668L115.099 139.667L115.111 139.665L115.114 139.664L115.126 139.662L115.128 139.661L115.14 139.659L115.143 139.659L115.152 139.657L115.157 139.656L115.167 139.655L115.171 139.654L115.181 139.652L115.186 139.652L115.196 139.65L115.2 139.65L115.21 139.649L115.215 139.648L115.224 139.647L115.229 139.647L115.239 139.646L115.244 139.645L115.253 139.644L115.258 139.644L115.268 139.643L115.273 139.643L115.282 139.642L115.297 139.642L115.311 139.641L115.326 139.641L115.34 139.641H115.354L115.369 139.641L115.383 139.641L115.398 139.642L115.412 139.643L115.427 139.643L115.441 139.645L115.456 139.646L115.47 139.647L115.485 139.649L115.499 139.651L115.513 139.653L115.528 139.655L115.542 139.657L115.557 139.66L115.571 139.662L115.586 139.665L115.6 139.669L115.615 139.672L115.629 139.675L115.643 139.679L115.658 139.683L115.67 139.687L115.675 139.688L115.684 139.691L115.689 139.692L115.699 139.695L115.704 139.696L115.713 139.7L115.716 139.701L115.728 139.705L115.73 139.706L115.742 139.71L115.745 139.711L115.754 139.715L115.759 139.716L115.769 139.72L115.774 139.722L115.783 139.726L115.786 139.727L115.798 139.732L115.8 139.733L115.81 139.737L115.814 139.739L115.824 139.743L115.826 139.745L115.839 139.75L115.841 139.751L115.851 139.756L115.855 139.758L115.865 139.763L115.867 139.764L115.879 139.77L115.882 139.771L115.892 139.777L115.894 139.778L115.906 139.784L115.908 139.786L115.918 139.791L115.923 139.793L115.932 139.799L115.935 139.801L115.944 139.807L115.949 139.809L115.959 139.815L115.961 139.817L115.971 139.823L115.973 139.825L115.985 139.831L115.988 139.833L115.997 139.84L116 139.842L116.01 139.848L116.019 139.855L116.026 139.859L116.031 139.864L116.038 139.869L116.046 139.873L116.05 139.878L116.058 139.883L116.067 139.89L116.072 139.895L125.071 146.996C126.384 148.032 128.257 147.764 129.254 146.397C130.249 145.03 129.991 143.079 128.679 142.043L113.541 130.097C113.534 130.092 113.527 130.087 113.519 130.081L104.356 122.849C101.878 127.093 98.8152 130.219 95.8291 131.671C92.1904 133.441 88.6215 132.911 86.0134 129.251C85.2043 128.116 85.3416 127.006 86.3265 125.662C87.6221 123.899 90.9261 121.365 92.5323 115.795C92.566 115.679 92.6142 115.568 92.6792 115.467C94.4227 112.7 96.4095 110.589 98.6322 109.119ZM93.1898 150.021L92.4481 152.901C92.1374 154.113 90.9381 154.833 89.7726 154.508C88.6094 154.184 87.9159 152.936 88.2289 151.723L89.9965 144.859C90.3072 143.647 91.5064 142.927 92.6696 143.251C93.8351 143.576 94.5263 144.824 94.2156 146.036L93.1898 150.021ZM88.1615 140.847L86.3963 147.712C86.0833 148.924 84.884 149.644 83.7209 149.319C82.5553 148.995 81.8642 147.747 82.1748 146.535L83.9424 139.67C84.2555 138.458 85.4523 137.738 86.6179 138.063C87.781 138.387 88.4746 139.635 88.1615 140.847ZM77.6667 136.439L75.9859 142.969C75.6752 144.182 76.3663 145.43 77.5319 145.754C78.695 146.079 79.8943 145.359 80.2049 144.147L81.9725 137.282C82.2856 136.07 81.592 134.822 80.4289 134.497C79.2634 134.173 78.0665 134.893 77.7534 136.105L77.6788 136.397C77.674 136.411 77.6716 136.425 77.6667 136.439ZM124.354 112.094C121.5 111.558 108.494 109.111 108.491 109.111C102.854 108.728 98.2806 111.237 94.7864 116.694C93.274 121.783 90.5119 124.546 88.8647 126.426C88.5059 126.834 88.2097 127.185 88.0218 127.514C87.9713 127.606 87.887 127.673 87.9472 127.757C89.7678 130.312 92.2698 130.636 94.8104 129.399C97.7195 127.985 100.648 124.722 102.945 120.382C103.266 119.776 104 119.555 104.58 119.889C104.672 119.941 104.754 120.004 104.826 120.074L114.745 127.902C118.808 128.575 122.721 128.64 126.365 127.566C127.005 127.377 127.672 127.765 127.853 128.43C128.033 129.096 127.66 129.79 127.022 129.978C124.298 130.781 121.435 131.015 118.475 130.846L129.702 139.706C131.263 139.325 132.57 138.451 133.885 137.663C135.077 136.949 136.274 136.297 137.587 135.956L124.354 112.094ZM76.7998 108.755L60.7277 137.737L47.8489 129.997L63.9233 101.016L76.7998 108.755ZM131.2 108.755L144.077 101.016L160.151 129.997L147.272 137.737L131.2 108.755ZM78.8853 110.009L65.6717 133.833L68.0245 135.247L70.2159 131.297L70.2183 131.293C70.2207 131.289 70.2231 131.284 70.2255 131.28L70.2303 131.27L81.238 111.423L78.8853 110.009ZM129.115 110.009L126.762 111.423L139.976 135.247L142.328 133.833L129.115 110.009Z" fill="black"/>
<path d="M90.3462 43.1666C90.0846 43.2119 89.7368 43.3387 89.4663 43.4868C88.7588 43.8795 88.2147 44.5169 87.855 45.3718C86.116 49.5074 75.2059 75.8193 75.1554 76.0005C74.8522 77.0578 74.9978 78.1635 75.5478 78.9489C75.7262 79.2057 76.074 79.5259 76.3356 79.6769C77.1798 80.1603 79.7691 81.5741 79.9237 81.6375C81.1336 82.1299 82.62 81.4714 83.4137 80.0938C83.491 79.9609 84.0202 78.7254 84.5939 77.3478L84.6826 77.1354C85.2156 75.8585 85.6406 74.8402 85.6463 74.8345C85.6582 74.8194 99.0743 72.9011 99.2645 72.883L99.3775 72.8739L99.8918 73.9705C100.174 74.5717 100.451 75.1426 100.504 75.2362C100.641 75.4628 100.944 75.7951 101.167 75.9522C101.482 76.1757 104.856 78.0275 105.106 78.1091C105.29 78.1725 105.406 78.1877 105.748 78.1967C106.12 78.2088 106.197 78.2028 106.45 78.1363C106.982 77.9973 107.431 77.7224 107.877 77.2723C108.563 76.5745 108.947 75.6833 108.994 74.6834C109.015 74.2424 108.98 73.9282 108.867 73.5355C108.819 73.3633 106.809 69.0344 102.478 59.7754C99.0059 52.344 96.1193 46.1905 96.0658 46.0998C95.941 45.8884 95.5694 45.4987 95.3583 45.3597C94.9986 45.1211 91.6959 43.3206 91.5026 43.2572C91.131 43.1363 90.7119 43.1031 90.3462 43.1666ZM94.0057 61.3825C94.8083 63.0953 95.4653 64.5151 95.4713 64.5363C95.4772 64.5635 95.4445 64.5846 95.3821 64.5967C95.0967 64.645 89.5792 65.4244 89.5703 65.4154C89.5644 65.4093 90.2184 63.8234 91.021 61.89C91.8267 59.9566 92.4896 58.3495 92.4985 58.3193C92.5044 58.2921 92.5193 58.2679 92.5312 58.2679C92.5401 58.2679 93.206 59.6696 94.0057 61.3825Z" fill="#112089"/>
<path d="M90.3462 43.1666C90.0846 43.2119 89.7368 43.3387 89.4663 43.4868C88.7588 43.8795 88.2147 44.5169 87.855 45.3718C86.116 49.5074 75.2059 75.8193 75.1554 76.0005C74.8522 77.0578 74.9978 78.1635 75.5478 78.9489C75.7262 79.2057 76.074 79.5259 76.3356 79.6769C77.1798 80.1603 79.7691 81.5741 79.9237 81.6375C81.1336 82.1299 82.62 81.4714 83.4137 80.0938C83.491 79.9609 84.0202 78.7254 84.5939 77.3478L84.6826 77.1354C85.2156 75.8585 85.6406 74.8402 85.6463 74.8345C85.6582 74.8194 99.0743 72.9011 99.2645 72.883L99.3775 72.8739L99.8918 73.9705C100.174 74.5717 100.451 75.1426 100.504 75.2362C100.641 75.4628 100.944 75.7951 101.167 75.9522C101.482 76.1757 104.856 78.0275 105.106 78.1091C105.29 78.1725 105.406 78.1877 105.748 78.1967C106.12 78.2088 106.197 78.2028 106.45 78.1363C106.982 77.9973 107.431 77.7224 107.877 77.2723C108.563 76.5745 108.947 75.6833 108.994 74.6834C109.015 74.2424 108.98 73.9282 108.867 73.5355C108.819 73.3633 106.809 69.0344 102.478 59.7754C99.0059 52.344 96.1193 46.1905 96.0658 46.0998C95.941 45.8884 95.5694 45.4987 95.3583 45.3597C94.9986 45.1211 91.6959 43.3206 91.5026 43.2572C91.131 43.1363 90.7119 43.1031 90.3462 43.1666ZM94.0057 61.3825C94.8083 63.0953 95.4653 64.5151 95.4713 64.5363C95.4772 64.5635 95.4445 64.5846 95.3821 64.5967C95.0967 64.645 89.5792 65.4244 89.5703 65.4154C89.5644 65.4093 90.2184 63.8234 91.021 61.89C91.8267 59.9566 92.4896 58.3495 92.4985 58.3193C92.5044 58.2921 92.5193 58.2679 92.5312 58.2679C92.5401 58.2679 93.206 59.6696 94.0057 61.3825Z" stroke="#E7C052"/>
<path d="M114.346 41.734C114.085 41.7797 113.737 41.9077 113.466 42.057C112.759 42.4531 112.215 43.096 111.855 43.9584C110.116 48.1298 99.2059 74.6696 99.1554 74.8525C98.8522 75.9189 98.9978 77.0342 99.5478 77.8264C99.7262 78.0854 100.074 78.4084 100.336 78.5607C101.18 79.0483 103.769 80.4743 103.924 80.5383C105.134 81.0349 106.62 80.3707 107.414 78.9812C107.491 78.8472 108.02 77.6009 108.594 76.2114L108.683 75.9973C109.216 74.7093 109.641 73.6821 109.646 73.6763C109.658 73.6611 123.074 71.7262 123.265 71.7079L123.377 71.6988L123.892 72.8048C124.174 73.4112 124.451 73.9871 124.504 74.0816C124.641 74.3101 124.944 74.6453 125.167 74.8037C125.482 75.0292 128.856 76.897 129.106 76.9793C129.29 77.0433 129.406 77.0585 129.748 77.0677C130.12 77.0799 130.197 77.0738 130.45 77.0067C130.982 76.8666 131.431 76.5893 131.877 76.1353C132.563 75.4314 132.947 74.5325 132.994 73.5239C133.015 73.0791 132.98 72.7622 132.867 72.3661C132.819 72.1924 130.809 67.826 126.478 58.4867C123.006 50.991 120.119 44.7841 120.066 44.6927C119.941 44.4794 119.569 44.0863 119.358 43.9462C118.999 43.7054 115.696 41.8894 115.503 41.8254C115.131 41.7035 114.712 41.67 114.346 41.734ZM118.006 60.1078C118.808 61.8354 119.465 63.2676 119.471 63.2889C119.477 63.3163 119.445 63.3376 119.382 63.3498C119.097 63.3986 113.579 64.1847 113.57 64.1756C113.564 64.1695 114.218 62.5698 115.021 60.6197C115.827 58.6695 116.49 57.0485 116.498 57.018C116.504 56.9906 116.519 56.9662 116.531 56.9662C116.54 56.9662 117.206 58.3801 118.006 60.1078Z" fill="#112089"/>
<path d="M114.346 41.734C114.085 41.7797 113.737 41.9077 113.466 42.057C112.759 42.4531 112.215 43.096 111.855 43.9584C110.116 48.1298 99.2059 74.6696 99.1554 74.8525C98.8522 75.9189 98.9978 77.0342 99.5478 77.8264C99.7262 78.0854 100.074 78.4084 100.336 78.5607C101.18 79.0483 103.769 80.4743 103.924 80.5383C105.134 81.0349 106.62 80.3707 107.414 78.9812C107.491 78.8472 108.02 77.6009 108.594 76.2114L108.683 75.9973C109.216 74.7093 109.641 73.6821 109.646 73.6763C109.658 73.6611 123.074 71.7262 123.265 71.7079L123.377 71.6988L123.892 72.8048C124.174 73.4112 124.451 73.9871 124.504 74.0816C124.641 74.3101 124.944 74.6453 125.167 74.8037C125.482 75.0292 128.856 76.897 129.106 76.9793C129.29 77.0433 129.406 77.0585 129.748 77.0677C130.12 77.0799 130.197 77.0738 130.45 77.0067C130.982 76.8666 131.431 76.5893 131.877 76.1353C132.563 75.4314 132.947 74.5325 132.994 73.5239C133.015 73.0791 132.98 72.7622 132.867 72.3661C132.819 72.1924 130.809 67.826 126.478 58.4867C123.006 50.991 120.119 44.7841 120.066 44.6927C119.941 44.4794 119.569 44.0863 119.358 43.9462C118.999 43.7054 115.696 41.8894 115.503 41.8254C115.131 41.7035 114.712 41.67 114.346 41.734ZM118.006 60.1078C118.808 61.8354 119.465 63.2676 119.471 63.2889C119.477 63.3163 119.445 63.3376 119.382 63.3498C119.097 63.3986 113.579 64.1847 113.57 64.1756C113.564 64.1695 114.218 62.5698 115.021 60.6197C115.827 58.6695 116.49 57.0485 116.498 57.018C116.504 56.9906 116.519 56.9662 116.531 56.9662C116.54 56.9662 117.206 58.3801 118.006 60.1078Z" stroke="#E7C052"/>
</svg>
