<svg width="182" height="28" viewBox="0 0 182 28" fill="none" xmlns="http://www.w3.org/2000/svg">
<g clip-path="url(#clip0_1_2)">
<rect width="182" height="28" fill="white"/>
<path d="M17.6591 23H12.5455L18.3068 5.54545H24.7841L30.5455 23H25.4318L21.6136 10.3523H21.4773L17.6591 23ZM16.7045 16.1136H26.3182V19.6591H16.7045V16.1136Z" fill="#C05050"/>
<path d="M9.65909 23H4.54545L10.3068 5.54545H16.7841L22.5455 23H17.4318L13.6136 10.3523H13.4773L9.65909 23ZM8.70455 16.1136H18.3182V19.6591H8.70455V16.1136Z" fill="#C51919"/>
<path d="M43.0032 19.7955C42.3157 19.7955 41.6879 19.6278 41.1197 19.2926C40.5515 18.9517 40.0969 18.4972 39.756 17.929C39.4208 17.3608 39.2532 16.733 39.2532 16.0455C39.2532 15.3523 39.4208 14.7244 39.756 14.1619C40.0969 13.5937 40.5515 13.142 41.1197 12.8068C41.6879 12.4659 42.3157 12.2955 43.0032 12.2955C43.6964 12.2955 44.3242 12.4659 44.8867 12.8068C45.4549 13.142 45.9066 13.5937 46.2418 14.1619C46.5827 14.7244 46.7532 15.3523 46.7532 16.0455C46.7532 16.733 46.5827 17.3608 46.2418 17.929C45.9066 18.4972 45.4549 18.9517 44.8867 19.2926C44.3242 19.6278 43.6964 19.7955 43.0032 19.7955Z" fill="#6D1613"/>
<path d="M63.5 22.2386C62.0795 22.2386 60.8636 21.9574 59.8523 21.3949C58.8409 20.8267 58.0653 20.0369 57.5256 19.0256C56.9858 18.0085 56.7159 16.8295 56.7159 15.4886C56.7159 14.1477 56.9858 12.9716 57.5256 11.9602C58.0653 10.9432 58.8409 10.1534 59.8523 9.59091C60.8636 9.02273 62.0795 8.73864 63.5 8.73864C64.9205 8.73864 66.1364 9.02273 67.1477 9.59091C68.1591 10.1534 68.9347 10.9432 69.4744 11.9602C70.0142 12.9716 70.2841 14.1477 70.2841 15.4886C70.2841 16.8295 70.0142 18.0085 69.4744 19.0256C68.9347 20.0369 68.1591 20.8267 67.1477 21.3949C66.1364 21.9574 64.9205 22.2386 63.5 22.2386ZM63.5341 18.7614C63.9318 18.7614 64.2756 18.6278 64.5653 18.3608C64.8551 18.0937 65.0795 17.7131 65.2386 17.2188C65.3977 16.7244 65.4773 16.1364 65.4773 15.4545C65.4773 14.767 65.3977 14.179 65.2386 13.6903C65.0795 13.196 64.8551 12.8153 64.5653 12.5483C64.2756 12.2812 63.9318 12.1477 63.5341 12.1477C63.1136 12.1477 62.7528 12.2812 62.4517 12.5483C62.1506 12.8153 61.9205 13.196 61.7614 13.6903C61.6023 14.179 61.5227 14.767 61.5227 15.4545C61.5227 16.1364 61.6023 16.7244 61.7614 17.2188C61.9205 17.7131 62.1506 18.0937 62.4517 18.3608C62.7528 18.6278 63.1136 18.7614 63.5341 18.7614ZM72.1932 22V8.90909H76.7614V11.3977H76.8977C77.1364 10.4773 77.5142 9.80398 78.0312 9.37784C78.554 8.9517 79.1648 8.73864 79.8636 8.73864C80.0682 8.73864 80.2699 8.75568 80.4688 8.78977C80.6733 8.81818 80.8693 8.8608 81.0568 8.91761V12.9318C80.8239 12.8523 80.5369 12.7926 80.196 12.7528C79.8551 12.7131 79.5625 12.6932 79.3182 12.6932C78.858 12.6932 78.4432 12.7983 78.0739 13.0085C77.7102 13.2131 77.4233 13.5028 77.2131 13.8778C77.0028 14.2472 76.8977 14.6818 76.8977 15.1818V22H72.1932ZM88.1222 22.2386C86.7244 22.2386 85.5199 21.9716 84.5085 21.4375C83.5028 20.8977 82.7273 20.125 82.1818 19.1193C81.642 18.108 81.3722 16.8977 81.3722 15.4886C81.3722 14.1364 81.6449 12.9545 82.1903 11.9432C82.7358 10.9318 83.5057 10.1449 84.5 9.58239C85.4943 9.01989 86.6676 8.73864 88.0199 8.73864C89.0085 8.73864 89.9034 8.89205 90.7045 9.19886C91.5057 9.50568 92.1903 9.9517 92.7585 10.5369C93.3267 11.1165 93.7642 11.821 94.071 12.6506C94.3778 13.4801 94.5312 14.4148 94.5312 15.4545V16.5455H82.8381V13.9545H90.2017C90.196 13.5795 90.0994 13.25 89.9119 12.9659C89.7301 12.6761 89.483 12.4517 89.1705 12.2926C88.8636 12.1278 88.5142 12.0455 88.1222 12.0455C87.7415 12.0455 87.392 12.1278 87.0739 12.2926C86.7557 12.4517 86.5 12.6733 86.3068 12.9574C86.1193 13.2415 86.0199 13.5739 86.0085 13.9545V16.75C86.0085 17.1705 86.0966 17.5455 86.2727 17.875C86.4489 18.2045 86.7017 18.4631 87.0312 18.6506C87.3608 18.8381 87.7585 18.9318 88.2244 18.9318C88.5483 18.9318 88.8438 18.8864 89.1108 18.7955C89.3835 18.7045 89.6165 18.5739 89.8097 18.4034C90.0028 18.2273 90.1449 18.017 90.2358 17.7727H94.5312C94.3835 18.6818 94.0341 19.4716 93.483 20.142C92.9318 20.8068 92.2017 21.3239 91.2926 21.6932C90.3892 22.0568 89.3324 22.2386 88.1222 22.2386ZM101.156 14.6364V22H96.451V8.90909H100.917V11.3977H101.053C101.337 10.5682 101.837 9.91761 102.553 9.44602C103.275 8.97443 104.116 8.73864 105.076 8.73864C106.002 8.73864 106.806 8.9517 107.488 9.37784C108.175 9.7983 108.707 10.3778 109.082 11.1165C109.462 11.8551 109.65 12.6989 109.644 13.6477V22H104.94V14.6364C104.945 13.9886 104.781 13.4801 104.445 13.1108C104.116 12.7415 103.656 12.5568 103.065 12.5568C102.678 12.5568 102.34 12.642 102.05 12.8125C101.766 12.9773 101.548 13.2159 101.394 13.5284C101.241 13.8352 101.161 14.2045 101.156 14.6364ZM114.523 22.2727C113.864 22.2727 113.299 22.0426 112.827 21.5824C112.362 21.1165 112.131 20.5511 112.137 19.8864C112.131 19.2386 112.362 18.6847 112.827 18.2244C113.299 17.7642 113.864 17.5341 114.523 17.5341C115.148 17.5341 115.7 17.7642 116.177 18.2244C116.66 18.6847 116.904 19.2386 116.91 19.8864C116.904 20.3295 116.788 20.733 116.56 21.0966C116.339 21.4545 116.049 21.7415 115.691 21.9574C115.333 22.1676 114.944 22.2727 114.523 22.2727ZM119.467 22V8.90909H124.035V11.3977H124.171C124.41 10.4773 124.788 9.80398 125.305 9.37784C125.827 8.9517 126.438 8.73864 127.137 8.73864C127.342 8.73864 127.543 8.75568 127.742 8.78977C127.947 8.81818 128.143 8.8608 128.33 8.91761V12.9318C128.097 12.8523 127.81 12.7926 127.469 12.7528C127.129 12.7131 126.836 12.6932 126.592 12.6932C126.131 12.6932 125.717 12.7983 125.347 13.0085C124.984 13.2131 124.697 13.5028 124.487 13.8778C124.276 14.2472 124.171 14.6818 124.171 15.1818V22H119.467ZM138.362 16.2727V8.90909H143.066V22H138.6V19.5114H138.464C138.18 20.3466 137.683 21 136.972 21.4716C136.262 21.9375 135.418 22.1705 134.441 22.1705C133.526 22.1705 132.725 21.9602 132.038 21.5398C131.356 21.1193 130.825 20.5398 130.444 19.8011C130.069 19.0625 129.879 18.2159 129.873 17.2614V8.90909H134.577V16.2727C134.583 16.9205 134.748 17.429 135.072 17.7983C135.401 18.1676 135.862 18.3523 136.452 18.3523C136.844 18.3523 137.183 18.2699 137.467 18.1051C137.756 17.9347 137.978 17.696 138.131 17.3892C138.29 17.0767 138.367 16.7045 138.362 16.2727Z" fill="#8D6866"/>
</g>
<defs>
<clipPath id="clip0_1_2">
<rect width="182" height="28" fill="white"/>
</clipPath>
</defs>
</svg>
