<?xml version="1.0" encoding="UTF-8"?> <svg xmlns="http://www.w3.org/2000/svg" width="70" height="70" viewBox="0 0 70 70" fill="none"><circle cx="35.2056" cy="35.0127" r="34.3286" fill="#21478F"></circle><circle cx="35.2056" cy="35.0127" r="33.5696" fill="white"></circle><circle cx="35.2054" cy="35.0128" r="31.5911" fill="#21478F"></circle><path d="M30.7789 20.1067H23.1247L13.7261 48.1197H21.3381L22.4315 44.8753H30.4309L29.0313 40.4216H23.9325L30.7789 20.1067Z" fill="white"></path><path d="M27.8434 32.8621L31.3469 21.8511L35.835 34.9854L35.835 48.1198H32.883L27.8434 32.8621Z" fill="white"></path><rect x="38.6663" y="18.7654" width="1.70858" height="31.9994" transform="rotate(18.5832 38.6663 18.7654)" fill="#21478F"></rect><path d="M47.141 20.1067H39.4867L30.0881 48.1197H37.7001L38.7936 44.8753H46.793L45.3934 40.4216H40.2945L47.141 20.1067Z" fill="white"></path><path d="M44.2057 32.8621L47.7093 21.8511L56.6853 48.1198H49.2454L44.2057 32.8621Z" fill="white"></path></svg> 